<?xml version="1.0" encoding="iso-8859-1"?>
<!-- Generator: Adobe Illustrator 19.0.0, SVG Export Plug-In . SVG Version: 6.00 Build 0)  -->
<svg version="1.1" id="Capa_1" xmlns="http://www.w3.org/2000/svg" xmlns:xlink="http://www.w3.org/1999/xlink" x="0px" y="0px"
	 viewBox="0 0 512 512" style="enable-background:new 0 0 512 512;" xml:space="preserve">
<g>
	<g>
		<path d="M354.15,377.707c0-11.453-7.579-21.168-17.984-24.396v-2.759c0-4.143-3.357-7.5-7.5-7.5s-7.5,3.357-7.5,7.5v1.618h-2.985
			v-1.618c0-4.143-3.357-7.5-7.5-7.5s-7.5,3.357-7.5,7.5v1.618h-1.831c-4.143,0-7.5,3.357-7.5,7.5s3.357,7.5,7.5,7.5h1.831v57.363
			h-1.831c-4.143,0-7.5,3.357-7.5,7.5s3.357,7.5,7.5,7.5h1.831v1.618c0,4.143,3.357,7.5,7.5,7.5s7.5-3.357,7.5-7.5v-1.618h2.985
			v1.618c0,4.143,3.357,7.5,7.5,7.5s7.5-3.357,7.5-7.5v-2.759c10.406-3.228,17.984-12.944,17.984-24.397v-0.106
			c0-7.035-2.86-13.415-7.477-18.038c4.617-4.623,7.477-11.002,7.477-18.037V377.707z M339.15,413.995
			c0,5.811-4.728,10.538-10.538,10.538H318.18V403.35h10.432c5.811,0,10.538,4.728,10.538,10.538V413.995z M339.15,377.813
			c0,5.811-4.728,10.537-10.538,10.537H318.18v-21.182h10.432c5.811,0,10.538,4.727,10.538,10.537V377.813z"/>
	</g>
</g>
<g>
	<g>
		<path d="M324,318.351c-40.203,0-73.345,30.773-77.131,70h-28.011V361.32c8.729-3.096,15-11.433,15-21.21
			c0-12.406-10.094-22.5-22.5-22.5s-22.5,10.094-22.5,22.5c0,9.777,6.271,18.114,15,21.21v27.031h-32.443
			c-3.096-8.729-11.433-15-21.21-15c-12.406,0-22.5,10.094-22.5,22.5s10.094,22.5,22.5,22.5c9.777,0,18.114-6.271,21.21-15h75.454
			c3.786,39.226,36.928,70,77.131,70c42.733,0,77.5-34.767,77.5-77.5C401.5,353.118,366.733,318.351,324,318.351z M150.205,403.351
			c-4.136,0-7.5-3.364-7.5-7.5s3.364-7.5,7.5-7.5s7.5,3.364,7.5,7.5S154.341,403.351,150.205,403.351z M211.358,347.609
			c-4.136,0-7.5-3.364-7.5-7.5s3.365-7.5,7.5-7.5c4.136,0,7.5,3.364,7.5,7.5S215.494,347.609,211.358,347.609z M324,458.351
			c-34.463,0-62.5-28.037-62.5-62.5s28.037-62.5,62.5-62.5s62.5,28.037,62.5,62.5S358.463,458.351,324,458.351z"/>
	</g>
</g>
<g>
	<g>
		<path d="M96.167,497H72.5V63.75c0-4.143-3.357-7.5-7.5-7.5s-7.5,3.357-7.5,7.5V504.5c0,4.143,3.357,7.5,7.5,7.5h31.167
			c4.143,0,7.5-3.357,7.5-7.5S100.31,497,96.167,497z"/>
	</g>
</g>
<g>
	<g>
		<path d="M447,472.167c-4.143,0-7.5,3.357-7.5,7.5V497H128c-4.143,0-7.5,3.357-7.5,7.5s3.357,7.5,7.5,7.5h319
			c4.143,0,7.5-3.357,7.5-7.5v-24.833C454.5,475.524,451.143,472.167,447,472.167z"/>
	</g>
</g>
<g>
	<g>
		<path d="M447,0H65c-4.143,0-7.5,3.357-7.5,7.5v24c0,4.143,3.357,7.5,7.5,7.5s7.5-3.357,7.5-7.5V15h367v433
			c0,4.143,3.357,7.5,7.5,7.5s7.5-3.357,7.5-7.5V7.5C454.5,3.357,451.143,0,447,0z"/>
	</g>
</g>
<g>
	<g>
		<path d="M391.549,41.414H120.451c-4.143,0-7.5,3.357-7.5,7.5s3.358,7.5,7.5,7.5h271.098c4.143,0,7.5-3.357,7.5-7.5
			S395.692,41.414,391.549,41.414z"/>
	</g>
</g>
<g>
	<g>
		<path d="M391.549,89.235H120.451c-4.143,0-7.5,3.357-7.5,7.5s3.358,7.5,7.5,7.5h271.098c4.143,0,7.5-3.357,7.5-7.5
			S395.692,89.235,391.549,89.235z"/>
	</g>
</g>
<g>
	<g>
		<path d="M391.549,137.058H120.451c-4.143,0-7.5,3.357-7.5,7.5s3.358,7.5,7.5,7.5h271.098c4.143,0,7.5-3.357,7.5-7.5
			S395.692,137.058,391.549,137.058z"/>
	</g>
</g>
<g>
	<g>
		<path d="M391.549,184.88H120.451c-4.143,0-7.5,3.357-7.5,7.5s3.358,7.5,7.5,7.5h271.098c4.143,0,7.5-3.357,7.5-7.5
			S395.692,184.88,391.549,184.88z"/>
	</g>
</g>
<g>
	<g>
		<path d="M391.549,232.701H120.451c-4.143,0-7.5,3.357-7.5,7.5s3.358,7.5,7.5,7.5h271.098c4.143,0,7.5-3.357,7.5-7.5
			S395.692,232.701,391.549,232.701z"/>
	</g>
</g>
<g>
	<g>
		<path d="M391.549,280.523H120.451c-4.143,0-7.5,3.357-7.5,7.5s3.357,7.5,7.5,7.5h271.098c4.142,0,7.5-3.357,7.5-7.5
			C399.049,283.88,395.692,280.523,391.549,280.523z"/>
	</g>
</g>
<g>
	<g>
		<path d="M228.315,433.453h-24.554c-3.096-8.729-11.433-15-21.21-15c-12.406,0-22.5,10.094-22.5,22.5s10.094,22.5,22.5,22.5
			c9.777,0,18.114-6.271,21.21-15h24.554c4.143,0,7.5-3.357,7.5-7.5S232.458,433.453,228.315,433.453z M182.551,448.453
			c-4.136,0-7.5-3.364-7.5-7.5s3.364-7.5,7.5-7.5c4.136,0,7.5,3.364,7.5,7.5S186.687,448.453,182.551,448.453z"/>
	</g>
</g>
<g>
</g>
<g>
</g>
<g>
</g>
<g>
</g>
<g>
</g>
<g>
</g>
<g>
</g>
<g>
</g>
<g>
</g>
<g>
</g>
<g>
</g>
<g>
</g>
<g>
</g>
<g>
</g>
<g>
</g>
</svg>
