<?xml version="1.0" encoding="iso-8859-1"?>
<!-- Generator: Adobe Illustrator 19.0.0, SVG Export Plug-In . SVG Version: 6.00 Build 0)  -->
<svg version="1.1" id="Layer_1" xmlns="http://www.w3.org/2000/svg" xmlns:xlink="http://www.w3.org/1999/xlink" x="0px" y="0px"
	 viewBox="0 0 512 512" style="enable-background:new 0 0 512 512;" xml:space="preserve">
<g>
	<g>
		<path d="M437.019,74.98C388.667,26.628,324.381,0,256,0S123.333,26.628,74.982,74.98C26.628,123.333,0,187.62,0,256
			s26.628,132.667,74.982,181.02C123.333,485.372,187.619,512,256,512s132.667-26.628,181.019-74.98
			C485.372,388.667,512,324.38,512,256S485.372,123.333,437.019,74.98z M256,491.602c-127.522,0-231.695-101.841-235.484-228.462
			h28.57c1.006,30.249,8.404,59.214,22.055,86.199c1.796,3.55,5.384,5.597,9.109,5.597c1.549,0,3.12-0.354,4.596-1.101
			c5.027-2.543,7.039-8.678,4.497-13.706C76.08,313.911,69.355,285.605,69.355,256c0-71.737,40.023-135.966,104.451-167.622
			c5.055-2.484,7.139-8.596,4.656-13.652c-2.486-5.056-8.596-7.139-13.653-4.656c-34.228,16.817-63.154,42.748-83.653,74.99
			c-18.695,29.408-29.562,62.936-31.772,97.681H20.779C27.68,118.975,130.539,20.398,256,20.398
			c36.98,0,71.992,8.575,103.168,23.823l-14.606,24.566C317.249,55.864,287.102,48.956,256,48.956
			c-5.632,0-10.199,4.566-10.199,10.199c0,5.633,4.567,10.199,10.199,10.199c55.952,0,108.475,24.791,144.102,68.015
			c2.017,2.447,4.935,3.713,7.877,3.713c2.284,0,4.581-0.764,6.481-2.329c4.347-3.583,4.966-10.011,1.383-14.357
			c-15.254-18.506-33.309-33.95-53.289-45.958l14.544-24.461C445.645,95.222,491.602,170.341,491.602,256
			C491.602,385.911,385.911,491.602,256,491.602z"/>
	</g>
</g>
<g>
	<g>
		<path d="M443.975,169.101c-1.501-3.242-3.11-6.492-4.781-9.656c-2.629-4.981-8.802-6.888-13.781-4.257
			c-4.981,2.63-6.888,8.8-4.257,13.781c1.507,2.852,2.957,5.779,4.31,8.702c1.724,3.725,5.411,5.917,9.262,5.917
			c1.434,0,2.891-0.304,4.279-0.946C444.117,180.274,446.342,174.212,443.975,169.101z"/>
	</g>
</g>
<g>
	<g>
		<path d="M452.845,245.801c-5.632,0-10.199,4.566-10.199,10.199c0,2.794-0.073,5.57-0.196,8.334l-28.437-3.468
			c0.05-1.619,0.074-3.24,0.074-4.866c0-58.078-31.747-111.366-82.851-139.069c-4.953-2.684-11.143-0.846-13.827,4.106
			c-2.685,4.952-0.846,11.143,4.105,13.827c44.521,24.132,72.176,70.549,72.176,121.136c0,45.384-22.367,87.844-59.83,113.578
			c-4.644,3.189-5.822,9.539-2.631,14.182c1.977,2.878,5.168,4.425,8.415,4.425c1.99,0,4.002-0.581,5.766-1.793
			c35.984-24.719,59.822-62.886,66.65-105.216l28.389,3.463C426.629,374.009,349.18,442.645,256,442.645
			c-16.835,0-33.421-2.246-49.388-6.613l9.645-27.005c12.703,3.3,26.02,5.061,39.742,5.061c5.632,0,10.199-4.566,10.199-10.199
			c0-5.633-4.567-10.199-10.199-10.199c-75.922,0-137.689-61.767-137.689-137.689c0-5.633-4.567-10.199-10.199-10.199
			c-5.632,0-10.199,4.566-10.199,10.199c0,66.281,41.005,123.155,98.976,146.613l-9.629,26.962
			c-11.759-4.659-23.069-10.527-33.759-17.566c-4.705-3.097-11.028-1.796-14.128,2.91c-3.098,4.705-1.795,11.029,2.911,14.128
			c33.781,22.241,73.104,33.998,113.717,33.998c114.165,0,207.044-92.879,207.044-207.044
			C463.044,250.367,458.477,245.801,452.845,245.801z"/>
	</g>
</g>
<g>
	<g>
		<path d="M259.362,249.49v-10.329c4.599,0.354,5.943,2.617,8.278,2.617c3.113,0,4.387-3.891,4.387-5.801
			c0-4.882-8.278-6.013-12.664-6.155v-1.768c0-0.99-1.344-1.91-2.689-1.91c-1.556,0-2.688,0.92-2.688,1.91v1.981
			c-7.5,1.062-14.15,5.377-14.15,14.362c0,9.056,7.641,12.098,14.15,14.575v11.461c-5.236-0.92-7.641-5.094-10.612-5.094
			c-2.688,0-4.811,3.537-4.811,5.943c0,4.527,6.933,8.914,15.423,9.198v1.769c0,0.988,1.132,1.908,2.688,1.908
			c1.343,0,2.689-0.92,2.689-1.91v-2.052c8.278-1.344,13.937-6.651,13.937-15.423C273.299,255.221,265.799,251.895,259.362,249.49z
			 M254.691,247.793c-2.688-1.132-4.527-2.406-4.527-4.457c0-1.698,1.343-3.325,4.527-3.961V247.793z M258.655,270.362v-9.48
			c2.547,1.202,4.315,2.688,4.315,5.023C262.97,268.451,261.06,269.795,258.655,270.362z"/>
	</g>
</g>
<g>
	<g>
		<path d="M353.912,245.801h-35.499c-4.891-30.037-31.017-53.036-62.413-53.036c-34.868,0-63.235,28.367-63.235,63.235
			c0,34.868,28.367,63.235,63.235,63.235c5.632,0,10.199-4.566,10.199-10.199c0-5.633-4.567-10.199-10.199-10.199
			c-23.62,0-42.837-19.216-42.837-42.837c0-23.62,19.216-42.837,42.837-42.837c23.62,0,42.837,19.216,42.837,42.837
			c0,5.633,4.567,10.199,10.199,10.199h34.088c-5.067,43.58-42.206,77.514-87.124,77.514c-48.366,0-87.713-39.349-87.713-87.713
			s39.347-87.713,87.713-87.713c5.632,0,10.199-4.566,10.199-10.199s-4.567-10.199-10.199-10.199
			c-17.17,0-33.414,4.03-47.846,11.183l-17.437-24.143c19.767-10.681,42.153-16.619,65.283-16.619
			c5.632,0,10.199-4.566,10.199-10.199c0-5.633-4.567-10.199-10.199-10.199c-30.299,0-59.741,8.599-85.145,24.867
			c-24.724,15.832-44.529,38.146-57.276,64.528c-2.452,5.072-0.326,11.17,4.746,13.62c1.43,0.692,2.941,1.019,4.431,1.019
			c3.79,0,7.431-2.123,9.191-5.765c9.732-20.143,24.161-37.235,41.563-50.241l17.263,23.903
			c-26.037,19.76-42.884,51.026-42.884,86.157c0,59.613,48.499,108.112,108.112,108.112S364.112,315.613,364.112,256
			C364.112,250.367,359.544,245.801,353.912,245.801z"/>
	</g>
</g>
<g>
</g>
<g>
</g>
<g>
</g>
<g>
</g>
<g>
</g>
<g>
</g>
<g>
</g>
<g>
</g>
<g>
</g>
<g>
</g>
<g>
</g>
<g>
</g>
<g>
</g>
<g>
</g>
<g>
</g>
</svg>
