<svg xmlns="http://www.w3.org/2000/svg" viewBox="0 0 622.79 200.04"><defs><style>.cls-1{fill:none;stroke:#d04646;stroke-linecap:round;stroke-linejoin:round;stroke-width:2px;}</style></defs><title>Ресурс 1</title><g id="Слой_2" data-name="Слой 2"><g id="Слой_1-2" data-name="Слой 1"><path class="cls-1" d="M556.44,113.64a17.86,17.86,0,0,0-24.34,6.49,17.72,17.72,0,0,0,15.43,26.61,17.72,17.72,0,0,0,8.91-33.1"/><path class="cls-1" d="M520.31,140.83a29.79,29.79,0,0,0,42.07,13.78L588.16,199M551,99.64a29.73,29.73,0,0,0-30.65,17.54A29.38,29.38,0,0,0,517.83,129h0L1,128.89m561.46-25.44L621.79,1M562.38,103.4l.08,0a29.73,29.73,0,0,1,9,8.08,29.43,29.43,0,0,1-.06,35m-3-53.35-.08,0"/></g></g></svg>